<svg width="63" height="63" viewBox="0 0 63 63" fill="none" xmlns="http://www.w3.org/2000/svg">
<path d="M6.53687 0.842285H55.9197C59.1156 0.842429 61.7068 3.4334 61.7068 6.62939V56.0122C61.7066 59.2081 59.1155 61.7992 55.9197 61.7993H6.53687C3.34087 61.7993 0.749904 59.2082 0.749756 56.0122V6.62939C0.749756 3.43331 3.34078 0.842285 6.53687 0.842285Z" fill="white" fill-opacity="0.08"/>
<path d="M6.53687 0.842285H55.9197C59.1156 0.842429 61.7068 3.4334 61.7068 6.62939V56.0122C61.7066 59.2081 59.1155 61.7992 55.9197 61.7993H6.53687C3.34087 61.7993 0.749904 59.2082 0.749756 56.0122V6.62939C0.749756 3.43331 3.34078 0.842285 6.53687 0.842285Z" stroke="url(#paint0_linear_131_225)" stroke-width="0.771603"/>
<path d="M37.8314 25.6335C34.9029 25.6335 32.5295 28.0069 32.5295 30.9354C32.5295 33.8638 34.9029 36.2372 37.8314 36.2372H38.0028C40.9312 36.2372 43.3046 33.8638 43.3046 30.9354C43.3046 28.0069 40.9312 25.6335 38.0028 25.6335H37.8314ZM38.0028 38.8199H37.8314C33.4766 38.8199 29.9468 35.2901 29.9468 30.9354C29.9468 26.5806 33.4766 23.0508 37.8314 23.0508H38.0028C42.3575 23.0508 45.8874 26.5806 45.8874 30.9354C45.8874 35.2901 42.3575 38.8199 38.0028 38.8199ZM24.4735 38.8199C21.5451 38.8199 19.1703 41.1933 19.1703 44.1217C19.1703 47.0502 21.5437 49.4236 24.4721 49.4236C24.4876 49.4236 24.5044 49.4236 24.5199 49.4236H24.5171C24.5213 49.4236 24.5269 49.4236 24.5325 49.4236C27.513 49.4236 29.9327 47.0151 29.9482 44.0374V38.8199H24.4735ZM24.5157 52.0077C24.4974 52.0077 24.4749 52.0077 24.4524 52.0077C20.0977 52.0077 16.5679 48.4779 16.5679 44.1232C16.5679 39.7684 20.0977 36.2386 24.4524 36.2386C24.4595 36.2386 24.4665 36.2386 24.4735 36.2386H32.5295V44.0374C32.5127 48.4427 28.9364 52.0077 24.5297 52.0077C24.5255 52.0077 24.5213 52.0077 24.5171 52.0077H24.5157ZM24.4735 25.6335C21.5451 25.6335 19.1717 28.0069 19.1717 30.9354C19.1717 33.8638 21.5451 36.2386 24.4735 36.2386L29.9468 36.2372V25.6349L24.4735 25.6335ZM32.5281 38.8199H24.4735C20.1188 38.8199 16.5889 35.2901 16.5889 30.9354C16.5889 26.5806 20.1188 23.0508 24.4735 23.0508H32.5295V38.8199H32.5281ZM24.4735 12.4471C21.5451 12.4471 19.1717 14.8205 19.1717 17.749C19.1717 20.6774 21.5451 23.0508 24.4735 23.0508H29.9468V12.4457L24.4735 12.4471ZM32.5281 25.6335H24.4735C20.1188 25.6335 16.5875 22.1037 16.5875 17.7476C16.5875 13.3914 20.1174 9.86157 24.4735 9.86157H32.5295V25.6321L32.5281 25.6335ZM32.5281 23.0508H38.0028C40.9256 23.0438 43.2906 20.6732 43.2906 17.749C43.2906 14.8247 40.9242 12.4542 38.0014 12.4471H32.5281V23.0508ZM38.0028 25.6335L29.9468 25.6349V9.86298H38.0028C42.3575 9.86298 45.8888 13.3928 45.8888 17.749C45.8888 22.1051 42.3589 25.6335 38.0028 25.6335Z" fill="url(#paint1_linear_131_225)"/>
<defs>
<linearGradient id="paint0_linear_131_225" x1="31.2281" y1="0.456543" x2="31.2281" y2="62.1848" gradientUnits="userSpaceOnUse">
<stop stop-color="#E6E6E6"/>
<stop offset="1" stop-color="#C5C5C5"/>
</linearGradient>
<linearGradient id="paint1_linear_131_225" x1="31.2283" y1="9.86157" x2="31.2283" y2="52.0077" gradientUnits="userSpaceOnUse">
<stop stop-color="#E6E6E6"/>
<stop offset="1" stop-color="#C5C5C5"/>
</linearGradient>
</defs>
</svg>
