<svg width="63" height="63" viewBox="0 0 63 63" fill="none" xmlns="http://www.w3.org/2000/svg">
<path d="M7.08057 0.842285H56.4634C59.6593 0.842429 62.2505 3.4334 62.2505 6.62939V56.0122C62.2503 59.2081 59.6592 61.7992 56.4634 61.7993H7.08057C3.88458 61.7993 1.29361 59.2082 1.29346 56.0122V6.62939C1.29346 3.43331 3.88448 0.842285 7.08057 0.842285Z" fill="white" fill-opacity="0.08"/>
<path d="M7.08057 0.842285H56.4634C59.6593 0.842429 62.2505 3.4334 62.2505 6.62939V56.0122C62.2503 59.2081 59.6592 61.7992 56.4634 61.7993H7.08057C3.88458 61.7993 1.29361 59.2082 1.29346 56.0122V6.62939C1.29346 3.43331 3.88448 0.842285 7.08057 0.842285Z" stroke="url(#paint0_linear_131_215)" stroke-width="0.771603"/>
<path d="M35.8594 22.3113L32.6258 16.1242C32.4608 15.8157 32.1409 15.6081 31.7726 15.6081C31.4043 15.6081 31.0844 15.8143 30.9223 16.1186L30.9194 16.1242L16.7209 41.5692L35.8594 22.3113ZM47.2039 44.0207L43.2053 19.1431C43.1314 18.681 42.7347 18.3312 42.2569 18.3312C41.9881 18.3312 41.7464 18.4407 41.5715 18.6184L16.3398 44.0221L30.2994 51.8885C30.7061 52.1203 31.1924 52.2582 31.71 52.2582C32.2276 52.2582 32.7154 52.1217 33.1349 51.8814L33.1206 51.8885L47.2039 44.0207ZM17.3608 37.4611L21.5628 10.4321C21.6353 9.96565 22.0335 9.61157 22.5155 9.61157C22.8824 9.61157 23.2023 9.81634 23.3644 10.1192L23.3673 10.1249L27.8863 18.6028L17.3608 37.4611Z" fill="url(#paint1_linear_131_215)"/>
<defs>
<linearGradient id="paint0_linear_131_215" x1="31.7718" y1="0.456543" x2="31.7718" y2="62.1848" gradientUnits="userSpaceOnUse">
<stop stop-color="#E6E6E6"/>
<stop offset="1" stop-color="#C5C5C5"/>
</linearGradient>
<linearGradient id="paint1_linear_131_215" x1="31.7719" y1="9.61157" x2="31.7719" y2="52.2582" gradientUnits="userSpaceOnUse">
<stop stop-color="#E6E6E6"/>
<stop offset="1" stop-color="#C5C5C5"/>
</linearGradient>
</defs>
</svg>
