<svg width="63" height="62" viewBox="0 0 63 62" fill="none" xmlns="http://www.w3.org/2000/svg">
<path d="M6.53687 0.385742H55.9197C59.1156 0.385886 61.7068 2.97686 61.7068 6.17285V55.5557C61.7066 58.7515 59.1155 61.3426 55.9197 61.3428H6.53687C3.34087 61.3428 0.749904 58.7516 0.749756 55.5557V6.17285C0.749756 2.97677 3.34078 0.385742 6.53687 0.385742Z" fill="white" fill-opacity="0.08"/>
<path d="M6.53687 0.385742H55.9197C59.1156 0.385886 61.7068 2.97686 61.7068 6.17285V55.5557C61.7066 58.7515 59.1155 61.3426 55.9197 61.3428H6.53687C3.34087 61.3428 0.749904 58.7516 0.749756 55.5557V6.17285C0.749756 2.97677 3.34078 0.385742 6.53687 0.385742Z" stroke="url(#paint0_linear_131_206)" stroke-width="0.771603"/>
<path d="M26.7913 52.1779C34.5165 52.6728 46.3798 51.9047 46.6601 48.2487C46.6601 48.2487 46.1209 49.6333 40.2751 50.7347C37.0468 51.3168 33.3308 51.6487 29.5361 51.6487C26.428 51.6487 23.3728 51.4255 20.3848 50.995L20.7266 51.035C20.7266 51.0336 21.715 51.8518 26.7913 52.1779ZM35.133 9.41504C35.133 9.41504 39.5914 13.8734 30.9064 20.729C23.942 26.2287 29.3187 29.3654 30.9049 32.9484C26.8399 29.2782 23.8577 26.0527 25.8573 23.0476C28.7952 18.635 36.9324 16.4966 35.133 9.41504ZM39.9862 40.8453C48.0347 36.663 44.3129 32.6423 41.7169 33.1858C41.3607 33.2531 41.0518 33.3389 40.7528 33.4462L40.7957 33.4333C40.9659 33.1944 41.2005 33.0099 41.4737 32.9055L41.4837 32.9026C46.6229 31.0961 50.575 38.2306 39.8245 41.057C39.8903 40.9984 39.9447 40.9283 39.9833 40.8496L39.9862 40.8453ZM26.0017 33.0271C26.0017 33.0271 18.205 34.8794 23.2426 35.5502C24.5986 35.6618 26.1777 35.7247 27.7711 35.7247C29.8079 35.7247 31.8204 35.6203 33.8042 35.4186L33.5554 35.4386C36.7836 35.1669 40.0219 34.5861 40.0219 34.5861C39.2624 34.918 38.6173 35.2684 38.0066 35.6675L38.0595 35.636C30.1426 37.7186 14.8479 36.7502 19.252 34.6205C21.1929 33.6149 23.4901 33.0256 25.9245 33.0256C25.9517 33.0256 25.9788 33.0256 26.006 33.0256L26.0017 33.0271ZM43.9439 46.0646C43.9439 46.0646 45.1583 47.0644 42.6094 47.8354C37.762 49.3043 22.433 49.7463 18.1778 47.894C16.6473 47.2275 19.518 46.3035 20.4191 46.1104C20.8353 46.0045 21.3145 45.943 21.8065 45.943C21.8394 45.943 21.8709 45.943 21.9038 45.9445H21.8995C20.196 44.7444 10.8959 48.2988 17.1751 49.3172C34.2991 52.0935 48.3851 48.0657 43.9439 46.0646ZM32.8373 29.9261C33.2865 30.4653 33.5596 31.1676 33.5596 31.9314C33.5596 32.9599 33.0648 33.8738 32.3009 34.4474L32.2924 34.4531C32.2924 34.4531 37.546 31.7398 35.133 28.3441C32.8788 25.1774 31.151 23.604 40.5082 18.1773C40.5082 18.1759 25.8229 21.8433 32.8373 29.9261ZM24.1852 37.8945C24.1852 37.8945 22.3472 39.2548 25.1535 39.5466C26.3822 39.701 27.8025 39.7883 29.2443 39.7883C31.8561 39.7883 34.4007 39.4994 36.8466 38.9515L36.6149 38.9944C37.1069 39.455 37.6948 39.8212 38.3441 40.0586L38.3799 40.0701C28.2288 43.0394 16.9191 40.3018 24.1838 37.8931L24.1852 37.8945ZM25.2136 42.5903C25.2136 42.5903 23.5744 43.5444 26.3808 43.8662C27.4092 44.0192 28.5949 44.1065 29.8021 44.1065C31.7388 44.1065 33.6226 43.8819 35.4291 43.4557L35.2632 43.4886C35.9311 43.8962 36.7078 44.2853 37.5188 44.6071L37.6247 44.6443C29.2257 48.243 18.6198 44.434 25.215 42.5903H25.2136Z" fill="url(#paint1_linear_131_206)"/>
<defs>
<linearGradient id="paint0_linear_131_206" x1="31.2281" y1="0" x2="31.2281" y2="61.7282" gradientUnits="userSpaceOnUse">
<stop stop-color="#E6E6E6"/>
<stop offset="1" stop-color="#C5C5C5"/>
</linearGradient>
<linearGradient id="paint1_linear_131_206" x1="30.8423" y1="9.41504" x2="30.8423" y2="52.313" gradientUnits="userSpaceOnUse">
<stop stop-color="#E6E6E6"/>
<stop offset="1" stop-color="#C5C5C5"/>
</linearGradient>
</defs>
</svg>
