<svg width="63" height="63" viewBox="0 0 63 63" fill="none" xmlns="http://www.w3.org/2000/svg">
<path d="M7.08057 1.11401H56.4634C59.6593 1.11416 62.2505 3.70513 62.2505 6.90112V56.2839C62.2503 59.4798 59.6592 62.0709 56.4634 62.071H7.08057C3.88458 62.071 1.29361 59.4799 1.29346 56.2839V6.90112C1.29346 3.70504 3.88448 1.11401 7.08057 1.11401Z" fill="white" fill-opacity="0.08"/>
<path d="M7.08057 1.11401H56.4634C59.6593 1.11416 62.2505 3.70513 62.2505 6.90112V56.2839C62.2503 59.4798 59.6592 62.0709 56.4634 62.071H7.08057C3.88458 62.071 1.29361 59.4799 1.29346 56.2839V6.90112C1.29346 3.70504 3.88448 1.11401 7.08057 1.11401Z" stroke="url(#paint0_linear_131_208)" stroke-width="0.771603"/>
<path d="M28.5149 31.7149C28.5149 36.9402 28.8883 41.3309 26.31 43.9293C24.8599 45.3911 22.5717 46.2524 19.7564 46.2524C15.1388 46.2524 12.5749 44.0028 10.9385 40.89C12.5139 39.8841 14.1238 38.9117 15.7647 37.971C16.4342 39.8431 18.6948 41.948 21.2459 40.6523C22.8629 39.8304 22.6762 37.3388 22.6762 34.6342C22.6762 29.0189 22.6762 22.5411 22.6762 17.4749C22.6711 17.3906 22.6661 17.3064 22.7353 17.2961C24.6622 17.2961 26.5888 17.2961 28.515 17.2961C28.5149 21.809 28.5149 26.9148 28.5149 31.7149ZM43.1717 28.3191C41.6985 27.6882 39.8672 26.9418 39.4183 25.5778C38.9151 24.0491 39.7732 22.7896 40.7288 22.3611C42.8299 21.4174 45.334 22.9711 45.8527 24.5653C47.4339 23.6241 49.0099 22.6773 50.4408 21.5864C48.7594 18.7941 46.2945 16.7951 41.8015 16.9389C39.3276 17.018 37.4693 17.799 36.0818 18.9645C34.7277 20.1017 33.6822 21.6979 33.5194 23.9695C33.033 30.7687 38.1206 32.5043 42.4568 34.3959C43.8238 34.9922 45.3434 35.5942 45.9722 36.7791C47.269 39.224 44.972 40.837 42.9931 41.0096C39.8172 41.2863 37.6758 39.4281 36.4391 37.4942C34.8943 38.4518 33.2145 39.2741 31.7322 40.2945C33.794 43.9203 37.1747 46.2676 42.4568 46.2525C47.8454 46.2373 51.8403 43.6393 52.1682 38.7456C52.6142 32.0939 47.6309 30.228 43.1717 28.3191Z" fill="url(#paint1_linear_131_208)"/>
<defs>
<linearGradient id="paint0_linear_131_208" x1="31.7718" y1="0.728271" x2="31.7718" y2="62.4565" gradientUnits="userSpaceOnUse">
<stop stop-color="#E6E6E6"/>
<stop offset="1" stop-color="#C5C5C5"/>
</linearGradient>
<linearGradient id="paint1_linear_131_208" x1="31.5673" y1="16.9316" x2="31.5673" y2="46.2525" gradientUnits="userSpaceOnUse">
<stop stop-color="#E6E6E6"/>
<stop offset="1" stop-color="#C5C5C5"/>
</linearGradient>
</defs>
</svg>
