<svg width="63" height="62" viewBox="0 0 63 62" fill="none" xmlns="http://www.w3.org/2000/svg">
<path d="M6.94458 0.570312H56.3274C59.5234 0.570457 62.1145 3.16143 62.1145 6.35742V55.7402C62.1144 58.9361 59.5233 61.5272 56.3274 61.5273H6.94458C3.74859 61.5273 1.15762 58.9362 1.15747 55.7402V6.35742C1.15747 3.16134 3.7485 0.570312 6.94458 0.570312Z" fill="white" fill-opacity="0.08"/>
<path d="M6.94458 0.570312H56.3274C59.5234 0.570457 62.1145 3.16143 62.1145 6.35742V55.7402C62.1144 58.9361 59.5233 61.5272 56.3274 61.5273H6.94458C3.74859 61.5273 1.15762 58.9362 1.15747 55.7402V6.35742C1.15747 3.16134 3.7485 0.570312 6.94458 0.570312Z" stroke="url(#paint0_linear_131_227)" stroke-width="0.771603"/>
<path d="M30.9855 40.9626C30.9855 40.9626 30.9855 26.1105 31.4787 26.112C31.86 26.112 32.3559 45.2701 32.3559 45.2701C31.6736 45.1899 30.9855 42.118 30.9855 40.9626ZM40.5438 26.284C39.2265 20.5272 36.3409 15.5775 32.3617 11.7573L32.3516 11.7487C31.8671 11.009 31.4242 10.1604 31.0687 9.26593L31.0343 9.16846C31.0357 9.19713 31.0357 9.23153 31.0357 9.26593C31.0357 10.0758 30.673 10.7997 30.1011 11.2857L30.0968 11.2885C24.9736 15.6377 21.7139 22.0467 21.6064 29.2183V29.2369C21.605 29.3258 21.605 29.4304 21.605 29.5351C21.605 36.6407 25.0238 42.9479 30.3061 46.9014L30.362 46.9416L30.4867 47.0319C30.717 48.7367 30.9139 50.4454 31.0773 52.1579H31.9388C32.1767 50.0206 32.4978 48.15 32.9178 46.3151L32.8519 46.6577C33.4196 46.2635 33.9155 45.855 34.3785 45.4121L34.3742 45.4164C38.3894 41.6937 40.895 36.3899 40.895 30.5026C40.895 30.4152 40.895 30.3292 40.8936 30.2418V30.2547C40.8893 28.8484 40.7617 27.4737 40.5195 26.1392L40.541 26.2811L40.5438 26.284Z" fill="url(#paint1_linear_131_227)"/>
<defs>
<linearGradient id="paint0_linear_131_227" x1="31.6358" y1="0.18457" x2="31.6358" y2="61.9128" gradientUnits="userSpaceOnUse">
<stop stop-color="#E6E6E6"/>
<stop offset="1" stop-color="#C5C5C5"/>
</linearGradient>
<linearGradient id="paint1_linear_131_227" x1="31.25" y1="9.16846" x2="31.25" y2="52.1579" gradientUnits="userSpaceOnUse">
<stop stop-color="#E6E6E6"/>
<stop offset="1" stop-color="#C5C5C5"/>
</linearGradient>
</defs>
</svg>
