<svg width="63" height="63" viewBox="0 0 63 63" fill="none" xmlns="http://www.w3.org/2000/svg">
<path d="M6.80884 1.11401H56.1917C59.3876 1.11416 61.9788 3.70513 61.9788 6.90112V56.2839C61.9786 59.4798 59.3875 62.0709 56.1917 62.071H6.80884C3.61285 62.071 1.02188 59.4799 1.02173 56.2839V6.90112C1.02173 3.70504 3.61275 1.11401 6.80884 1.11401Z" fill="white" fill-opacity="0.08"/>
<path d="M6.80884 1.11401H56.1917C59.3876 1.11416 61.9788 3.70513 61.9788 6.90112V56.2839C61.9786 59.4798 59.3875 62.0709 56.1917 62.071H6.80884C3.61285 62.071 1.02188 59.4799 1.02173 56.2839V6.90112C1.02173 3.70504 3.61275 1.11401 6.80884 1.11401Z" stroke="url(#paint0_linear_131_211)" stroke-width="0.771603"/>
<path fill-rule="evenodd" clip-rule="evenodd" d="M31.1141 14.3519C21.5924 14.3519 13.8736 22.0707 13.8736 31.5924C13.8736 41.1142 21.5924 48.8329 31.1141 48.8329C34.7035 48.8329 38.0336 47.7377 40.7932 45.8619L25.8093 27.8183V40.2126C25.8093 41.3112 24.9187 42.2019 23.82 42.2019C22.7214 42.2019 21.8307 41.3112 21.8307 40.2126V22.309C21.8307 21.4709 22.3561 20.7226 23.1444 20.438C23.9328 20.1533 24.815 20.3933 25.3504 21.0381L45.1738 44.9097C45.8672 45.7447 45.7632 46.9815 44.9402 47.6889C41.2276 50.8805 36.3938 52.8114 31.1141 52.8114C19.3951 52.8114 9.89502 43.3114 9.89502 31.5924C9.89502 19.8734 19.3951 10.3733 31.1141 10.3733C42.8331 10.3733 52.3332 19.8734 52.3332 31.5924C52.3332 33.6195 52.0483 35.5835 51.5152 37.4448C51.2552 38.353 50.9361 39.236 50.5627 40.0898C50.1224 41.0964 48.9495 41.5552 47.9429 41.115C46.9364 40.6747 46.4772 39.5018 46.9178 38.4952C47.2207 37.8024 47.4796 37.086 47.6904 36.3494C48.1225 34.8407 48.3546 33.2453 48.3546 31.5924C48.3546 22.0707 40.6359 14.3519 31.1141 14.3519ZM37.745 20.3197C38.8437 20.3197 39.7343 21.2104 39.7343 22.309V30.2662C39.7343 31.3648 38.8437 32.2555 37.745 32.2555C36.6464 32.2555 35.7558 31.3648 35.7558 30.2662V22.309C35.7558 21.2104 36.6464 20.3197 37.745 20.3197Z" fill="url(#paint1_linear_131_211)"/>
<defs>
<linearGradient id="paint0_linear_131_211" x1="31.5001" y1="0.728271" x2="31.5001" y2="62.4565" gradientUnits="userSpaceOnUse">
<stop stop-color="#E6E6E6"/>
<stop offset="1" stop-color="#C5C5C5"/>
</linearGradient>
<linearGradient id="paint1_linear_131_211" x1="31.1141" y1="10.3733" x2="31.1141" y2="52.8114" gradientUnits="userSpaceOnUse">
<stop stop-color="#E6E6E6"/>
<stop offset="1" stop-color="#C5C5C5"/>
</linearGradient>
</defs>
</svg>
