<svg width="63" height="63" viewBox="0 0 63 63" fill="none" xmlns="http://www.w3.org/2000/svg">
<path d="M6.53687 1.11401H55.9197C59.1156 1.11416 61.7068 3.70513 61.7068 6.90112V56.2839C61.7066 59.4798 59.1155 62.0709 55.9197 62.071H6.53687C3.34087 62.071 0.749904 59.4799 0.749756 56.2839V6.90112C0.749756 3.70504 3.34078 1.11401 6.53687 1.11401Z" fill="white" fill-opacity="0.08"/>
<path d="M6.53687 1.11401H55.9197C59.1156 1.11416 61.7068 3.70513 61.7068 6.90112V56.2839C61.7066 59.4798 59.1155 62.0709 55.9197 62.071H6.53687C3.34087 62.071 0.749904 59.4799 0.749756 56.2839V6.90112C0.749756 3.70504 3.34078 1.11401 6.53687 1.11401Z" stroke="url(#paint0_linear_131_213)" stroke-width="0.771603"/>
<path d="M43.452 35.1335C43.452 31.7588 41.1704 30.859 36.3699 30.2249C31.5182 29.5838 31.0249 29.2512 31.0249 28.1168C31.0249 27.1786 31.4429 25.9262 35.0365 25.9262C38.2463 25.9262 39.429 26.6171 39.9166 28.7807C39.9621 28.984 40.1412 29.1332 40.3559 29.1346H42.383C42.5138 29.1332 42.6303 29.0778 42.7128 28.9911C42.7881 28.91 42.8336 28.802 42.8336 28.6826C42.8336 28.6684 42.8336 28.6556 42.8322 28.6414V28.6428C42.518 24.9155 40.0417 23.1784 35.0379 23.1784C30.5828 23.1784 27.9246 25.0577 27.9246 28.2106C27.9246 31.6308 30.5672 32.5747 34.8432 32.9984C39.9593 33.4987 40.3559 34.2465 40.3559 35.2529C40.3559 36.9986 38.9542 37.7434 35.662 37.7434C31.5281 37.7434 30.6184 36.7057 30.3127 34.6488C30.2772 34.4313 30.091 34.2664 29.8649 34.2664H27.8435C27.8421 34.2664 27.8421 34.2664 27.8407 34.2664C27.5933 34.2664 27.3929 34.4668 27.3929 34.7142V34.7156C27.3929 37.3483 28.8244 40.4856 35.662 40.4856C40.6146 40.487 43.452 38.5395 43.452 35.1335ZM30.8387 52.9098H30.8373C30.2345 52.9098 29.6702 52.7463 29.1855 52.462L29.2011 52.4705L23.9855 49.3844C23.2079 48.9494 23.5875 48.7944 23.8433 48.7035C24.7432 48.4192 25.525 48.0552 26.2471 47.6046L26.2031 47.6302C26.2514 47.6075 26.3097 47.5932 26.3694 47.5932C26.4518 47.5932 26.5272 47.6188 26.5912 47.6615L26.5897 47.6601L30.597 50.0383C30.6667 50.0767 30.7506 50.098 30.8387 50.098C30.9268 50.098 31.0107 50.0752 31.0832 50.0369L31.0804 50.0383L46.7044 41.0215C46.848 40.9334 46.9418 40.7784 46.9418 40.6007V22.5686C46.9418 22.3866 46.8452 22.2288 46.7002 22.1393L46.6973 22.1378L31.0804 13.1282C31.0107 13.0884 30.9283 13.0656 30.8401 13.0656C30.752 13.0656 30.6681 13.0884 30.597 13.1296L30.5999 13.1282L14.9872 22.1407C14.8393 22.2288 14.7427 22.388 14.7398 22.5686V40.5993C14.7398 40.7784 14.8393 40.9334 14.9843 41.0158L14.9872 41.0172L19.266 43.4893C21.5874 44.6507 23.0103 43.2832 23.0103 41.9085V24.1067C23.0103 23.8593 23.2108 23.6575 23.4595 23.6575C23.4609 23.6575 23.4638 23.6575 23.4652 23.6575H25.4454C25.6942 23.6575 25.8974 23.8579 25.8989 24.1067V41.9085C25.9216 42.0763 25.9358 42.271 25.9358 42.4686C25.9358 44.8596 23.9983 46.7972 21.6073 46.7972C21.4907 46.7972 21.3741 46.7929 21.259 46.783L21.2746 46.7844C21.2405 46.7844 21.1993 46.7858 21.1581 46.7858C19.8701 46.7858 18.6661 46.4219 17.6469 45.7893L17.6753 45.8064L13.5756 43.4495C12.5891 42.8681 11.938 41.8104 11.938 40.6007V22.57C11.938 21.3603 12.5891 20.3041 13.56 19.7312L13.5756 19.7227L29.1997 10.6945C29.673 10.4301 30.2388 10.2751 30.8415 10.2751C31.4443 10.2751 32.0086 10.4301 32.5005 10.703L32.4834 10.6945L48.1046 19.7227C49.0926 20.3041 49.7451 21.3603 49.7465 22.57V40.6007C49.7437 41.8104 49.0926 42.8681 48.1203 43.4409L48.1046 43.4495L32.4834 52.4705C32.0143 52.7463 31.4514 52.9098 30.8501 52.9098C30.8472 52.9098 30.8415 52.9098 30.8387 52.9098Z" fill="url(#paint1_linear_131_213)"/>
<defs>
<linearGradient id="paint0_linear_131_213" x1="31.2281" y1="0.728271" x2="31.2281" y2="62.4565" gradientUnits="userSpaceOnUse">
<stop stop-color="#E6E6E6"/>
<stop offset="1" stop-color="#C5C5C5"/>
</linearGradient>
<linearGradient id="paint1_linear_131_213" x1="30.8423" y1="10.2751" x2="30.8423" y2="52.9098" gradientUnits="userSpaceOnUse">
<stop stop-color="#E6E6E6"/>
<stop offset="1" stop-color="#C5C5C5"/>
</linearGradient>
</defs>
</svg>
