<svg width="63" height="62" viewBox="0 0 63 62" fill="none" xmlns="http://www.w3.org/2000/svg">
<path d="M6.80884 0.385742H56.1917C59.3876 0.385886 61.9788 2.97686 61.9788 6.17285V55.5557C61.9786 58.7515 59.3875 61.3426 56.1917 61.3428H6.80884C3.61285 61.3428 1.02188 58.7516 1.02173 55.5557V6.17285C1.02173 2.97677 3.61275 0.385742 6.80884 0.385742Z" fill="white" fill-opacity="0.08"/>
<path d="M6.80884 0.385742H56.1917C59.3876 0.385886 61.9788 2.97686 61.9788 6.17285V55.5557C61.9786 58.7515 59.3875 61.3426 56.1917 61.3428H6.80884C3.61285 61.3428 1.02188 58.7516 1.02173 55.5557V6.17285C1.02173 2.97677 3.61275 0.385742 6.80884 0.385742Z" stroke="url(#paint0_linear_131_204)" stroke-width="0.771603"/>
<path d="M28.7281 39.2648C29.5064 39.3002 30.3017 39.3257 31.107 39.3257C31.9207 39.3257 32.7245 39.3087 33.5128 39.2648C32.7245 40.2837 31.9462 41.1852 31.1225 42.0442L31.1339 42.0329C30.3145 41.1838 29.5276 40.2809 28.7861 39.3412L28.7281 39.2648ZM20.6644 38.1327C22.1971 38.5219 24.0665 38.853 25.9742 39.0568L26.1595 39.0724C27.3271 40.6757 28.5073 42.0867 29.7739 43.4141L29.7583 43.3971C27.903 45.4675 25.3996 46.9223 22.5679 47.4445L22.49 47.4558C22.4844 47.4558 22.4787 47.4558 22.473 47.4558C22.1221 47.4558 21.7909 47.3695 21.5008 47.2167L21.5121 47.2223C20.3347 46.5501 19.8238 43.9787 20.2215 40.6743C20.3163 39.8606 20.472 39.0044 20.663 38.1313L20.6644 38.1327ZM41.5849 38.1143C41.7519 38.7851 41.909 39.6398 42.0208 40.5088L42.0335 40.6305C42.4396 43.9335 41.9387 46.502 40.7712 47.1883C40.5108 47.3327 40.1994 47.4176 39.8683 47.4176C39.8357 47.4176 39.8032 47.4162 39.7706 47.4148H39.7749C36.8695 46.8841 34.3675 45.4392 32.5165 43.3943L32.5066 43.383C33.7505 42.0768 34.9223 40.6687 35.9964 39.187L36.0785 39.0681C38.1673 38.8502 40.0395 38.5134 41.8637 38.0534L41.5849 38.1129V38.1143ZM22.3188 32.8329C22.6726 33.5263 23.0433 34.2169 23.4509 34.9103C23.8575 35.6 24.2731 36.2736 24.6977 36.9312C23.4693 36.7515 22.2834 36.5251 21.1499 36.2491C21.4683 35.1354 21.8673 33.982 22.3174 32.83L22.3188 32.8329ZM39.9065 32.7975C40.3749 33.9594 40.7726 35.1184 41.1023 36.242C39.9702 36.5194 38.7744 36.7543 37.5375 36.9312C37.9621 36.2675 38.3866 35.584 38.7843 34.8835C39.1819 34.1943 39.5541 33.4895 39.9093 32.7961L39.9065 32.7975ZM19.2549 25.2278C19.872 27.3194 20.5343 29.0685 21.3055 30.7554L21.1994 30.4979C20.5399 31.9201 19.8875 33.6593 19.3526 35.4495L19.279 35.7396C18.2799 35.4325 17.4761 35.1311 16.6935 34.7929L16.8562 34.8552C13.7938 33.5518 11.8126 31.838 11.8126 30.4795C11.8126 29.1209 13.7938 27.3986 16.8562 26.1009C17.5992 25.7825 18.4143 25.4952 19.2549 25.2278ZM42.9434 25.2207C43.7996 25.4853 44.6133 25.7811 45.3747 26.1009C48.4371 27.41 50.4184 29.1209 50.4184 30.4795C50.4099 31.838 48.4286 33.556 45.3662 34.8566C44.6232 35.175 43.8095 35.4608 42.9703 35.7283C42.3477 33.6296 41.6854 31.8819 40.9169 30.1922L41.0245 30.4582C41.6811 29.0374 42.3349 27.2982 42.8684 25.508L42.9434 25.2164V25.2207ZM37.5262 24.0277C38.756 24.2103 39.9405 24.4339 41.074 24.7126C40.7556 25.8306 40.3579 26.9797 39.9065 28.1317C39.5527 27.4425 39.1819 26.7477 38.7744 26.0556C38.3767 25.3622 37.9521 24.6872 37.5276 24.0291L37.5262 24.0277ZM24.6878 24.0277C24.2632 24.6942 23.8387 25.3764 23.4424 26.0797C23.0448 26.7689 22.6726 27.4623 22.3188 28.1557C21.8504 26.9953 21.4527 25.8391 21.123 24.7126C22.2551 24.448 23.4481 24.2117 24.6864 24.0305L24.6878 24.0277ZM31.1155 23.5777C32.4245 23.5777 33.7279 23.6371 35.01 23.7418C35.728 24.7711 36.4252 25.8674 37.1016 27.0307C37.7592 28.1628 38.3592 29.3101 38.9017 30.4724C38.3569 31.6314 37.7597 32.789 37.1101 33.9211C36.4379 35.0887 35.7431 36.1996 35.0227 37.2284C33.7349 37.3402 32.4302 37.401 31.1141 37.401C29.805 37.401 28.5017 37.3388 27.2195 37.2369C26.502 36.2081 25.8015 35.1071 25.1279 33.948C24.4703 32.8159 23.8703 31.6687 23.3278 30.5063C23.8641 29.3445 24.4698 28.184 25.1194 27.0505C25.7916 25.883 26.4865 24.7763 27.2068 23.7475C28.4946 23.6343 29.7994 23.5748 31.1155 23.5748V23.5777ZM31.0886 18.9345C31.9094 19.7836 32.6962 20.6851 33.4363 21.6247L33.493 21.6997C32.7146 21.6644 31.9193 21.6403 31.1141 21.6403C30.3003 21.6403 29.4965 21.6573 28.7083 21.6997C29.4951 20.6808 30.2734 19.7794 31.0985 18.9204L31.0872 18.9317L31.0886 18.9345ZM22.4546 13.5399C25.36 14.072 27.8606 15.5169 29.713 17.5604L29.7229 17.5717C28.479 18.8793 27.3073 20.2874 26.2331 21.7719L26.1511 21.8908C24.0637 22.1073 22.1914 22.4413 20.3687 22.9012L20.6461 22.8418C20.4479 21.9757 20.3008 21.1365 20.1974 20.3313C19.7913 17.0283 20.2923 14.4597 21.4598 13.7762C21.7513 13.6389 22.0924 13.554 22.4518 13.5427H22.4561L22.4546 13.5399ZM39.7338 13.5045V13.5158C39.7522 13.5158 39.7735 13.5144 39.7961 13.5144C40.1343 13.5144 40.4527 13.5979 40.733 13.7451L40.7216 13.7394C41.8991 14.4145 42.4099 16.9844 42.0123 20.2902C41.9174 21.104 41.7618 21.9616 41.5707 22.8361C40.0353 22.4427 38.1658 22.1101 36.2582 21.9078L36.077 21.8922C34.9081 20.2874 33.7279 18.8765 32.4613 17.5476L32.4783 17.5646C34.3336 15.4985 36.8328 14.0437 39.6588 13.5187L39.7381 13.5059L39.7338 13.5045ZM39.7423 11.577C36.2865 12.1021 33.2948 13.7805 31.1098 16.2018L31.0985 16.2146C28.8979 13.7946 25.9062 12.1275 22.5353 11.6223L22.4561 11.6124C22.4377 11.6124 22.415 11.6124 22.3924 11.6124C21.6975 11.6124 21.0451 11.795 20.4805 12.1148L20.5003 12.1049C18.069 13.5073 17.5242 17.8774 18.7794 23.3612C13.3961 25.024 9.89502 27.6817 9.89502 30.4823C9.89502 33.2942 13.4145 35.959 18.8134 37.6091C17.5681 43.1141 18.1242 47.4912 20.5611 48.8922C21.0961 49.1993 21.7386 49.379 22.4221 49.379C22.4532 49.379 22.4844 49.379 22.5141 49.3776H22.5098C25.9657 48.8526 28.9573 47.1728 31.1424 44.75L31.1537 44.7373C33.3543 47.1586 36.3459 48.8257 39.7169 49.3309L39.7961 49.3408C39.8173 49.3408 39.8442 49.3408 39.8697 49.3408C40.5603 49.3408 41.2099 49.1597 41.7717 48.8441L41.7519 48.854C44.1817 47.453 44.728 43.0829 43.4727 37.5977C48.8362 35.9491 52.3373 33.2857 52.3373 30.4809C52.3373 27.6689 48.8178 25.0042 43.4189 23.3498C44.6643 17.8505 44.1081 13.4691 41.6712 12.0667C41.1306 11.7568 40.4825 11.5742 39.7919 11.5742C39.7735 11.5742 39.7551 11.5742 39.7367 11.5742H39.7395L39.7423 11.577ZM35.0595 30.4823C35.0595 32.6659 33.2892 34.4363 31.1056 34.4363C28.922 34.4363 27.1516 32.6659 27.1516 30.4823C27.1516 28.2987 28.922 26.5283 31.1056 26.5283C32.1981 26.5283 33.1859 26.9713 33.9019 27.6859C34.618 28.402 35.0595 29.3898 35.0595 30.4823Z" fill="url(#paint1_linear_131_204)"/>
<defs>
<linearGradient id="paint0_linear_131_204" x1="31.5001" y1="0" x2="31.5001" y2="61.7282" gradientUnits="userSpaceOnUse">
<stop stop-color="#E6E6E6"/>
<stop offset="1" stop-color="#C5C5C5"/>
</linearGradient>
<linearGradient id="paint1_linear_131_204" x1="31.1162" y1="11.5742" x2="31.1162" y2="49.379" gradientUnits="userSpaceOnUse">
<stop stop-color="#E6E6E6"/>
<stop offset="1" stop-color="#C5C5C5"/>
</linearGradient>
</defs>
</svg>
