<svg width="63" height="62" viewBox="0 0 63 62" fill="none" xmlns="http://www.w3.org/2000/svg">
<rect x="0.885801" y="0.570372" width="60.9566" height="60.9566" rx="5.78702" fill="white" fill-opacity="0.08"/>
<rect x="0.885801" y="0.570372" width="60.9566" height="60.9566" rx="5.78702" stroke="url(#paint0_linear_131_229)" stroke-width="0.771603"/>
<path fill-rule="evenodd" clip-rule="evenodd" d="M31.3641 15.7092C24.5046 15.7092 20.2196 19.1171 18.5041 25.9355C21.0761 22.5276 24.0776 21.2493 27.5061 22.1007C29.4634 22.5868 30.8626 23.9988 32.4084 25.56C34.9315 28.1037 37.8507 31.0487 44.2242 31.0487C51.0837 31.0487 55.3687 27.6408 57.0842 20.8224C54.5122 24.2303 51.5132 25.5086 48.0822 24.6572C46.1249 24.1711 44.7257 22.7591 43.1774 21.1979C40.6568 18.6516 37.7401 15.7092 31.3641 15.7092ZM18.5041 31.0487C11.6445 31.0487 7.35957 34.4566 5.64404 41.275C8.21605 37.8645 11.2176 36.5888 14.6461 37.4401C16.6034 37.9262 18.0025 39.3383 19.5509 40.8995C22.0715 43.4432 24.9907 46.3882 31.3667 46.3882C38.2262 46.3882 42.5112 42.9802 44.2267 36.1618C41.6547 39.5698 38.6532 40.848 35.2247 39.9967C33.2674 39.5106 31.8682 38.0986 30.3225 36.5374C27.7968 33.9936 24.8775 31.0487 18.5041 31.0487Z" fill="url(#paint1_linear_131_229)"/>
<defs>
<linearGradient id="paint0_linear_131_229" x1="31.3641" y1="0.18457" x2="31.3641" y2="61.9128" gradientUnits="userSpaceOnUse">
<stop stop-color="#E6E6E6"/>
<stop offset="1" stop-color="#C5C5C5"/>
</linearGradient>
<linearGradient id="paint1_linear_131_229" x1="31.3641" y1="15.7092" x2="31.3641" y2="46.3882" gradientUnits="userSpaceOnUse">
<stop stop-color="#E6E6E6"/>
<stop offset="1" stop-color="#C5C5C5"/>
</linearGradient>
</defs>
</svg>
