<svg width="63" height="62" viewBox="0 0 63 62" fill="none" xmlns="http://www.w3.org/2000/svg">
<path d="M7.08057 0.385742H56.4634C59.6593 0.385886 62.2505 2.97686 62.2505 6.17285V55.5557C62.2503 58.7515 59.6592 61.3426 56.4634 61.3428H7.08057C3.88458 61.3428 1.29361 58.7516 1.29346 55.5557V6.17285C1.29346 2.97677 3.88448 0.385742 7.08057 0.385742Z" fill="white" fill-opacity="0.08"/>
<path d="M7.08057 0.385742H56.4634C59.6593 0.385886 62.2505 2.97686 62.2505 6.17285V55.5557C62.2503 58.7515 59.6592 61.3426 56.4634 61.3428H7.08057C3.88458 61.3428 1.29361 58.7516 1.29346 55.5557V6.17285C1.29346 2.97677 3.88448 0.385742 7.08057 0.385742Z" stroke="url(#paint0_linear_131_202)" stroke-width="0.771603"/>
<path d="M46.8293 16.3933C48.3567 16.7484 49.7447 17.548 50.8182 18.691C51.4111 19.3095 51.9262 19.9982 52.3518 20.7418C52.3715 20.8224 49.5995 22.6853 47.9174 23.7232C47.8565 23.7643 47.6131 23.5013 47.3393 23.0951C47.033 22.5656 46.5973 22.1226 46.0731 21.8074C45.5488 21.4922 44.9532 21.3152 44.3419 21.293C42.4092 21.1606 41.1637 22.1735 41.1726 23.8628C41.156 24.2785 41.2505 24.6911 41.4464 25.0582C41.8706 25.9386 42.6615 26.4647 45.14 27.5384C49.7051 29.5069 51.6628 30.7989 52.8725 32.6404C53.556 33.8034 53.977 35.1018 54.1059 36.4446C54.2348 37.7874 54.0685 39.1422 53.6188 40.414C53.0009 41.8091 52.0208 43.0133 50.7804 43.9017C49.5399 44.79 48.0842 45.3301 46.5645 45.4658C44.9492 45.6512 43.3171 45.6344 41.7059 45.4157C39.2376 45.0104 36.9638 43.8258 35.2171 42.0353C34.5575 41.2919 33.9991 40.4646 33.5565 39.5747C33.7428 39.4365 33.939 39.3121 34.1434 39.2025C34.4262 39.0397 35.4999 38.4241 36.5127 37.8371L38.3452 36.7741L38.73 37.3325C39.3761 38.2603 40.1996 39.051 41.153 39.6589C42.1147 40.1864 43.204 40.4365 44.2995 40.3812C45.395 40.3259 46.4536 39.9674 47.3572 39.3457C47.8231 38.8913 48.1143 38.2875 48.1797 37.64C48.2452 36.9925 48.0807 36.3426 47.7151 35.8042C47.2194 35.0884 46.2066 34.4997 43.3308 33.2524C41.0754 32.4924 39.0211 31.2322 37.3216 29.566C36.5119 28.6435 35.914 27.5551 35.5697 26.377C35.3153 25.0352 35.2778 23.6613 35.4587 22.3077C35.7963 20.7498 36.6047 19.3334 37.7743 18.2505C38.944 17.1675 40.4184 16.4705 41.9976 16.2537C43.6061 16.0576 45.2349 16.1047 46.8293 16.3933ZM31.8582 19.0561L31.8779 21.6652H23.5709V45.2529H17.7067V21.6688H9.4033V19.108C9.38107 18.2299 9.40496 17.3512 9.47488 16.4756C9.5053 16.4345 14.5553 16.4148 20.6809 16.4255L31.8242 16.4559L31.8582 19.0561Z" fill="url(#paint1_linear_131_202)"/>
<defs>
<linearGradient id="paint0_linear_131_202" x1="31.7718" y1="0" x2="31.7718" y2="61.7282" gradientUnits="userSpaceOnUse">
<stop stop-color="#E6E6E6"/>
<stop offset="1" stop-color="#C5C5C5"/>
</linearGradient>
<linearGradient id="paint1_linear_131_202" x1="31.7717" y1="16.135" x2="31.7717" y2="45.5933" gradientUnits="userSpaceOnUse">
<stop stop-color="#E6E6E6"/>
<stop offset="1" stop-color="#C5C5C5"/>
</linearGradient>
</defs>
</svg>
