<svg width="75" height="36" viewBox="0 0 75 36" fill="none" xmlns="http://www.w3.org/2000/svg">
<path opacity="0.97" fill-rule="evenodd" clip-rule="evenodd" d="M54.5456 0.00259174C55.0514 -0.00895329 55.948 0.0141368 57.5918 0.152677V10.2892C57.5918 18.5901 57.6148 20.4142 57.7413 20.3911C57.8218 20.368 60.0863 18.1052 67.6503 10.37L70.3172 10.3469C71.7886 10.3239 73.1566 10.3123 73.352 10.3123C73.5474 10.3123 73.7314 10.3469 73.7543 10.4047C73.7773 10.4508 73.421 10.8665 72.9612 11.3283C72.5128 11.7901 70.9495 13.4295 69.5011 14.988C68.0526 16.5466 66.0409 18.6594 63.1671 21.5687L64.0867 22.5731C64.5925 23.1388 65.0523 23.6468 65.1213 23.7161C65.1788 23.7854 66.0639 24.7898 67.0755 25.9558C68.0871 27.1219 69.8459 29.1423 70.9725 30.4468C72.1105 31.7514 73.2715 33.0907 73.5589 33.4024C73.8463 33.7256 74.3061 34.2336 74.582 34.5338C74.8464 34.834 75.0303 35.111 74.9958 35.1688C74.9614 35.2149 73.398 35.238 68.1101 35.1803L67.7653 34.7531C67.5698 34.5222 66.6157 33.3908 65.6386 32.2363C64.6615 31.0818 63.374 29.5463 62.7878 28.8305C62.19 28.1032 60.822 26.4638 59.7415 25.1823C58.6494 23.9008 57.7298 22.8733 57.6838 22.9079C57.6263 22.931 57.5918 25.6903 57.5918 35.1341L54.9824 35.2149C53.534 35.2611 52.3499 35.2842 52.3385 35.2727C52.3155 35.2611 52.304 27.3528 52.304 0.152677L52.9592 0.083407C53.3271 0.0487719 54.0398 0.0141368 54.5456 0.00259174ZM13.1622 10.2084C13.9209 10.243 14.898 10.3354 15.3463 10.4278C15.7832 10.5086 16.5533 10.7164 17.0476 10.878C17.5305 11.0396 18.3121 11.3629 18.7605 11.5938C19.2203 11.8247 19.887 12.2172 20.2319 12.4481C20.5767 12.6906 21.2205 13.2101 21.6458 13.6142C22.0826 14.0183 22.7379 14.7918 23.1057 15.3344C23.4736 15.877 23.9104 16.6274 24.0828 17.0084C24.2552 17.3894 24.4967 17.9897 24.6231 18.3361C24.7381 18.6825 24.922 19.3059 25.0139 19.7215C25.1174 20.1371 25.2324 21.0145 25.2783 21.6842C25.3358 22.3538 25.3358 23.4621 25.2783 24.1663C25.2324 24.859 25.0714 25.8981 24.9335 26.4753C24.7955 27.0411 24.4967 27.9531 24.2897 28.4957C24.0713 29.0383 23.646 29.8927 23.3586 30.4007C23.0023 31.0125 22.4505 31.6937 21.7263 32.421C20.9906 33.1599 20.3123 33.7025 19.6571 34.0951C19.1283 34.4068 18.2432 34.834 17.7029 35.0418C17.1626 35.238 16.0705 35.5382 15.2544 35.6998C14.4497 35.8615 13.4036 36 12.9323 36C12.461 36 11.3804 35.8615 10.5413 35.6998C9.7021 35.5382 8.50658 35.2034 7.87433 34.9494C7.24209 34.707 6.25349 34.199 5.69021 33.8295C5.11544 33.4601 4.32226 32.8482 3.91992 32.4672C3.51759 32.0978 2.93132 31.4166 2.60945 30.9779C2.28758 30.5277 1.82776 29.8003 1.59786 29.3616C1.35645 28.9114 1.01159 28.0801 0.816172 27.5144C0.62075 26.9372 0.367852 25.8519 0.229908 25.0899C0.103458 24.328 0 23.3005 0 22.804C0 22.3191 0.0804676 21.4071 0.172431 20.7836C0.275889 20.1718 0.482806 19.2482 0.632246 18.7402C0.781686 18.2322 1.13804 17.3432 1.41393 16.7775C1.70132 16.2003 2.14964 15.4498 2.41403 15.1035C2.68992 14.7571 3.17272 14.1914 3.49459 13.8566C3.81647 13.5103 4.39123 12.9908 4.77058 12.6906C5.14993 12.3904 5.79367 11.9517 6.2075 11.7208C6.62134 11.4899 7.31106 11.1666 7.75938 11.005C8.1962 10.8318 8.89742 10.624 9.31126 10.5201C9.72509 10.4278 10.4493 10.3008 10.9206 10.2546C11.3919 10.1969 12.4035 10.1853 13.1622 10.2084ZM10.2884 14.6071C9.96649 14.711 9.40322 14.9765 9.02387 15.1959C8.64452 15.4152 8.05826 15.8886 7.7134 16.2465C7.38003 16.6043 6.89723 17.2509 6.65582 17.7011C6.40293 18.1398 6.08105 18.9134 5.92012 19.3982C5.75918 19.9062 5.58675 20.8414 5.51778 21.5341C5.43731 22.3653 5.43731 23.185 5.51778 23.9932C5.58675 24.6628 5.7247 25.5171 5.82816 25.8981C5.93161 26.2791 6.17302 26.9487 6.37993 27.399C6.58685 27.8377 6.98919 28.5188 7.27657 28.8998C7.56396 29.2808 8.04676 29.7772 8.35714 29.9966C8.65602 30.2275 9.13883 30.5392 9.42621 30.7124C9.71359 30.874 10.2769 31.128 10.6907 31.2665C11.3115 31.4974 11.6793 31.5436 12.8748 31.5436C14.1278 31.5436 14.4152 31.509 15.1164 31.255C15.5532 31.1049 16.2545 30.7355 16.6683 30.4468C17.0821 30.1582 17.6569 29.6156 17.9443 29.2346C18.2432 28.8652 18.634 28.2417 18.8294 27.8608C19.0134 27.4798 19.2548 26.9372 19.3467 26.6485C19.4387 26.3599 19.5996 25.7249 19.7031 25.2285C19.818 24.6974 19.887 23.7623 19.887 22.8618C19.887 22.0536 19.818 20.9799 19.7146 20.4719C19.6226 19.964 19.4272 19.2135 19.2663 18.7979C19.1168 18.3823 18.8409 17.7819 18.6685 17.4702C18.4961 17.147 18.0133 16.5466 17.5994 16.1195C17.0591 15.5768 16.5993 15.242 15.9786 14.9419C15.5073 14.711 14.7486 14.4454 14.3117 14.3531C13.8634 14.2607 13.1392 14.1914 12.7024 14.1914C12.2541 14.203 11.6678 14.2492 11.3804 14.3069C11.093 14.3646 10.5987 14.4916 10.2884 14.6071ZM38.567 10.1507C39.3257 10.1507 40.4063 10.1969 40.981 10.2661C41.5443 10.3238 42.349 10.4624 42.7628 10.5663C43.1766 10.6587 43.9468 10.9588 44.4871 11.2128C45.2803 11.5938 45.6481 11.8709 46.4528 12.6675C47.1885 13.4064 47.5219 13.8682 47.8208 14.4685C48.0277 14.9072 48.3036 15.7385 48.43 16.3157C48.6484 17.297 48.6599 17.8512 48.7404 35.1918H43.51L43.625 32.2248L42.7628 32.9637C42.2915 33.3793 41.4638 33.9681 40.9235 34.2913C40.3833 34.6146 39.6131 34.9956 39.1992 35.1572C38.7854 35.3073 38.0152 35.5036 37.4749 35.6075C36.9347 35.6998 36.061 35.7691 35.5207 35.7691C34.9804 35.7691 34.0953 35.6883 33.532 35.5959C32.9802 35.5036 32.1871 35.2842 31.7502 35.111C31.3249 34.9379 30.6927 34.6031 30.3478 34.3722C30.0029 34.1528 29.4741 33.7372 29.1868 33.4485C28.8994 33.1715 28.4855 32.6519 28.2556 32.3056C28.0257 31.9592 27.7154 31.3358 27.5774 30.9202C27.359 30.2852 27.313 29.9273 27.313 28.6689C27.313 27.399 27.3475 27.0526 27.5774 26.4176C27.7269 26.002 28.0257 25.3786 28.2556 25.0322C28.4741 24.6859 28.9684 24.0971 29.3592 23.7276C29.75 23.3582 30.3938 22.8848 30.8076 22.677C31.2214 22.4577 31.8652 22.2037 32.2445 22.0998C32.6239 22.0074 33.555 21.8227 34.3137 21.6957C35.0724 21.5687 36.6243 21.3263 37.7623 21.1531C38.9004 20.9915 40.2223 20.7375 40.6936 20.5989C41.1649 20.4604 41.7972 20.2064 42.0961 20.0332C42.395 19.8485 42.7973 19.4906 42.9927 19.2251C43.1881 18.9595 43.4065 18.5324 43.4755 18.2784C43.533 18.0244 43.5675 17.5049 43.5215 17.1239C43.487 16.6967 43.3491 16.2465 43.1881 15.9694C43.0272 15.7154 42.7283 15.3575 42.5214 15.1728C42.303 14.988 41.8662 14.7225 41.5558 14.5724C41.2339 14.4223 40.5442 14.2492 40.0039 14.1799C39.3372 14.0991 38.6819 14.0991 37.9003 14.1799C37.291 14.2376 36.5093 14.3992 36.176 14.5262C35.8541 14.6532 35.3713 14.9072 35.1184 15.0804C34.8655 15.2651 34.4631 15.6577 34.2217 15.9809C33.9459 16.3504 33.6815 16.9161 33.1412 18.6247L28.0487 18.6825V18.3938C28.0487 18.2322 28.1177 17.7242 28.2097 17.2624C28.3016 16.8122 28.4855 16.1195 28.635 15.7385C28.7729 15.3575 28.9913 14.861 29.1178 14.6417C29.2442 14.4223 29.5316 14.0067 29.7615 13.7181C29.9914 13.4295 30.3018 13.0716 30.4628 12.8984C30.6237 12.7368 31.0375 12.3904 31.3824 12.1133C31.7272 11.8362 32.3595 11.4322 32.7848 11.2244C33.2216 11.005 34.0148 10.7279 34.5666 10.5894C35.1299 10.4508 35.9346 10.3008 36.3829 10.2546C36.8197 10.2084 37.8083 10.1622 38.567 10.1507ZM42.8433 23.6006C42.4869 23.7507 41.6363 23.9816 40.9465 24.1086C40.2683 24.2356 38.8084 24.4665 37.7048 24.6281C36.3944 24.8129 35.4288 25.0091 34.9459 25.2054C34.5321 25.3555 33.9918 25.6672 33.7504 25.8635C33.509 26.0713 33.1757 26.4753 33.0032 26.764C32.7733 27.1681 32.7044 27.4798 32.6699 28.2071C32.6239 28.9922 32.6584 29.2231 32.8883 29.7541C33.0492 30.1236 33.3481 30.5392 33.624 30.7701C33.8769 30.9895 34.3712 31.2665 34.716 31.3935C35.0609 31.5321 35.7046 31.6591 36.153 31.6937C36.6013 31.7283 37.3715 31.6937 37.8773 31.6129C38.3831 31.5321 39.1533 31.3358 39.6016 31.1626C40.0384 30.9895 40.6936 30.6662 41.0385 30.4353C41.3834 30.2044 41.9121 29.7657 42.1995 29.454C42.4869 29.1538 42.8663 28.6227 43.0272 28.2879C43.2456 27.8723 43.3721 27.3643 43.464 26.6139C43.5215 26.0366 43.5675 25.0553 43.5445 24.4319L43.51 23.3236L42.8433 23.6006Z" fill="url(#paint0_linear_50_276)"/>
<defs>
<linearGradient id="paint0_linear_50_276" x1="37.5" y1="0" x2="37.5" y2="36" gradientUnits="userSpaceOnUse">
<stop stop-color="#E6E6E6"/>
<stop offset="1" stop-color="#C5C5C5"/>
</linearGradient>
</defs>
</svg>
